<svg xmlns="http://www.w3.org/2000/svg" width="865.333" height="272.842" viewBox="0 0 865.333 272.842">
  <g id="Group_793" data-name="Group 793" transform="translate(-95.528 -40.025)">
    <g id="Group_787" data-name="Group 787" transform="translate(493.575 278.731)">
      <path id="Path_2346" data-name="Path 2346" d="M226.28,118.64h7.145l12.944,22.735V118.64h6.35v32.61H245.9l-13.273-23.14v23.14h-6.35Z" transform="translate(-226.28 -118.019)" fill="#808184"/>
      <path id="Path_2347" data-name="Path 2347" d="M253.889,122.349a9.8,9.8,0,0,1,4.168,3.568,11.841,11.841,0,0,1,1.921,4.983,30.466,30.466,0,0,1,.207,4.789H242.622q.142,3.626,2.521,5.087a6.407,6.407,0,0,0,3.477.9,5.34,5.34,0,0,0,3.5-1.105,5.269,5.269,0,0,0,1.3-1.659h6.439a7.842,7.842,0,0,1-2.338,4.359q-3.238,3.516-9.072,3.516a13.14,13.14,0,0,1-8.494-2.965q-3.681-2.968-3.681-9.653,0-6.265,3.321-9.614a11.642,11.642,0,0,1,8.624-3.34A13.691,13.691,0,0,1,253.889,122.349Zm-9.431,5.446a6.543,6.543,0,0,0-1.68,3.732H253.64a5.256,5.256,0,0,0-1.677-3.808,5.526,5.526,0,0,0-3.741-1.3A4.991,4.991,0,0,0,244.458,127.8Z" transform="translate(-205.853 -112.745)" fill="#808184"/>
      <path id="Path_2348" data-name="Path 2348" d="M244.361,130.512v-4.493h3.364v-6.725h6.238v6.725h3.918v4.493h-3.918v12.74a2.861,2.861,0,0,0,.377,1.848,4.136,4.136,0,0,0,2.3.365c.195,0,.4,0,.609-.012s.426-.018.633-.033v4.713l-2.986.113q-4.471.151-6.107-1.55a4.614,4.614,0,0,1-1.062-3.34V130.512Z" transform="translate(-189.317 -116.682)" fill="#808184"/>
      <path id="Path_2349" data-name="Path 2349" d="M263.273,121.43h6.4L273.34,138.8l3.76-17.368h6.569l-6.99,24.117H270.2l-3.781-17.569-3.83,17.569h-6.548l-6.77-24.117h6.77l3.76,17.3Z" transform="translate(-179.29 -112.315)" fill="#808184"/>
      <path id="Path_2350" data-name="Path 2350" d="M282.814,143.116q-3.05,3.767-9.27,3.766t-9.27-3.766a14.963,14.963,0,0,1,0-18.117q3.055-3.822,9.27-3.824t9.27,3.824a14.963,14.963,0,0,1,0,18.117Zm-5.041-3.489a11.274,11.274,0,0,0,0-11.166,5.608,5.608,0,0,0-8.509,0,11.194,11.194,0,0,0,0,11.166,5.579,5.579,0,0,0,8.509,0Z" transform="translate(-154.85 -112.835)" fill="#808184"/>
      <path id="Path_2351" data-name="Path 2351" d="M284.242,121.253c.079.006.262.018.542.033v6.46c-.4-.046-.752-.073-1.062-.088s-.563-.021-.752-.021q-3.8,0-5.111,2.475a9.648,9.648,0,0,0-.731,4.292v11.529h-6.35V121.816H276.8v4.2a13.17,13.17,0,0,1,2.542-3.294,6.9,6.9,0,0,1,4.6-1.486A2.837,2.837,0,0,1,284.242,121.253Z" transform="translate(-135.315 -112.702)" fill="#808184"/>
      <path id="Path_2352" data-name="Path 2352" d="M276.57,118.676h6.2v17.59l7.955-9.093h7.842l-8.646,8.981,8.978,15.024h-7.672l-5.842-10.3-2.615,2.712v7.592h-6.2Z" transform="translate(-123.473 -117.945)" fill="#808184"/>
      <path id="Path_2353" data-name="Path 2353" d="M293.237,122.464a13.418,13.418,0,0,1,10.025-4.028q8.137,0,11.906,5.4a11.793,11.793,0,0,1,2.235,6.086h-6.816a9.225,9.225,0,0,0-1.671-3.541,7.4,7.4,0,0,0-11.139.874q-2.1,3-2.1,8.484t2.216,8.22a6.961,6.961,0,0,0,5.638,2.734,6.381,6.381,0,0,0,5.346-2.347,10.267,10.267,0,0,0,1.69-3.784h6.767a14.669,14.669,0,0,1-4.475,8.673,13.02,13.02,0,0,1-9.224,3.34q-6.959,0-10.944-4.512-3.987-4.534-3.982-12.433Q288.707,127.088,293.237,122.464Z" transform="translate(-98.661 -118.436)" fill="#808184"/>
      <path id="Path_2354" data-name="Path 2354" d="M320.859,143.116q-3.05,3.767-9.27,3.766t-9.27-3.766a14.963,14.963,0,0,1,0-18.117q3.055-3.822,9.27-3.824t9.27,3.824a14.963,14.963,0,0,1,0,18.117Zm-5.041-3.489a11.275,11.275,0,0,0,0-11.166,5.608,5.608,0,0,0-8.509,0,11.194,11.194,0,0,0,0,11.166,5.58,5.58,0,0,0,8.509,0Z" transform="translate(-77.075 -112.835)" fill="#808184"/>
      <path id="Path_2355" data-name="Path 2355" d="M328.26,123.2q2.37,1.959,2.368,6.493v16.238h-6.46v-14.67a6.713,6.713,0,0,0-.505-2.919,3.544,3.544,0,0,0-3.513-1.857,4.355,4.355,0,0,0-4.372,2.719,9.46,9.46,0,0,0-.615,3.674v13.054h-6.3V121.859h6.107v3.522a10.637,10.637,0,0,1,2.289-2.679,7.941,7.941,0,0,1,4.913-1.461A9.218,9.218,0,0,1,328.26,123.2Z" transform="translate(-57.464 -112.702)" fill="#808184"/>
      <path id="Path_2356" data-name="Path 2356" d="M317.122,130.512v-4.493h3.361v-6.725h6.241v6.725h3.915v4.493h-3.915v12.74a2.861,2.861,0,0,0,.377,1.848,4.13,4.13,0,0,0,2.3.365c.195,0,.4,0,.609-.012s.426-.018.63-.033v4.713l-2.983.113q-4.475.151-6.107-1.55a4.615,4.615,0,0,1-1.065-3.34V130.512Z" transform="translate(-40.573 -116.682)" fill="#808184"/>
      <path id="Path_2357" data-name="Path 2357" d="M336.335,121.253c.079.006.262.018.539.033v6.46c-.4-.046-.749-.073-1.059-.088s-.563-.021-.752-.021q-3.8,0-5.111,2.475a9.648,9.648,0,0,0-.731,4.292v11.529h-6.35V121.816h6.018v4.2a13.315,13.315,0,0,1,2.542-3.294,6.912,6.912,0,0,1,4.6-1.486A2.873,2.873,0,0,1,336.335,121.253Z" transform="translate(-28.822 -112.702)" fill="#808184"/>
      <path id="Path_2358" data-name="Path 2358" d="M349.791,143.116q-3.05,3.767-9.27,3.766t-9.27-3.766a14.963,14.963,0,0,1,0-18.117q3.055-3.822,9.27-3.824t9.27,3.824a14.963,14.963,0,0,1,0,18.117Zm-5.041-3.489a11.274,11.274,0,0,0,0-11.166,5.608,5.608,0,0,0-8.509,0,11.175,11.175,0,0,0,0,11.166,5.579,5.579,0,0,0,8.509,0Z" transform="translate(-17.93 -112.835)" fill="#808184"/>
      <path id="Path_2359" data-name="Path 2359" d="M344.124,151.25h-6.3V118.64h6.3Z" transform="translate(1.738 -118.019)" fill="#808184"/>
      <path id="Path_2360" data-name="Path 2360" d="M348.26,151.25h-6.3V118.64h6.3Z" transform="translate(10.193 -118.019)" fill="#808184"/>
      <path id="Path_2361" data-name="Path 2361" d="M363.039,122.349a9.779,9.779,0,0,1,4.165,3.568,11.884,11.884,0,0,1,1.924,4.983,30.936,30.936,0,0,1,.2,4.789H351.772q.142,3.626,2.521,5.087a6.389,6.389,0,0,0,3.474.9,4.892,4.892,0,0,0,4.8-2.764h6.439a7.868,7.868,0,0,1-2.341,4.359q-3.238,3.516-9.069,3.516a13.127,13.127,0,0,1-8.493-2.965q-3.685-2.968-3.681-9.653,0-6.265,3.321-9.614a11.63,11.63,0,0,1,8.621-3.34A13.716,13.716,0,0,1,363.039,122.349Zm-9.434,5.446a6.562,6.562,0,0,0-1.68,3.732H362.79a5.258,5.258,0,0,0-1.68-3.808,5.516,5.516,0,0,0-3.741-1.3A4.991,4.991,0,0,0,353.605,127.8Z" transform="translate(17.281 -112.745)" fill="#808184"/>
      <path id="Path_2362" data-name="Path 2362" d="M367.764,121.253c.082.006.262.018.542.033v6.46c-.4-.046-.752-.073-1.059-.088s-.563-.021-.755-.021c-2.533,0-4.241.825-5.108,2.475a9.648,9.648,0,0,0-.731,4.292v11.529H354.3V121.816h6.019v4.2a13.316,13.316,0,0,1,2.542-3.294,6.912,6.912,0,0,1,4.6-1.486A2.775,2.775,0,0,1,367.764,121.253Z" transform="translate(35.434 -112.702)" fill="#808184"/>
    </g>
    <g id="Group_788" data-name="Group 788" transform="translate(97.522 40.025)">
      <path id="Path_2363" data-name="Path 2363" d="M142.188,78.642l8.095,7.367-5.5,6.022-7.026-6.022h-32.7a8.83,8.83,0,0,1-8.877-8.877V48.9a8.825,8.825,0,0,1,8.877-8.877h28.166a8.677,8.677,0,0,1,6.323,2.585,8.522,8.522,0,0,1,2.618,6.293ZM105.06,77.579h28.166a.4.4,0,0,0,.448-.448V48.9a.4.4,0,0,0-.448-.448H105.06a.4.4,0,0,0-.447.448v28.23A.4.4,0,0,0,105.06,77.579Z" transform="translate(-96.183 -40.025)" fill="#808184"/>
      <path id="Path_2364" data-name="Path 2364" d="M151.046,77.132V40.025h8.494V77.132a8.5,8.5,0,0,1-2.618,6.289,8.593,8.593,0,0,1-6.259,2.588h-28.23a8.835,8.835,0,0,1-8.877-8.877V40.025h8.43V77.132a.4.4,0,0,0,.447.448h28.23Q151.046,77.579,151.046,77.132Z" transform="translate(-60.668 -40.025)" fill="#808184"/>
      <path id="Path_2365" data-name="Path 2365" d="M139.806,40.025h28.166a8.672,8.672,0,0,1,6.323,2.585,8.511,8.511,0,0,1,2.618,6.293V86.009h-8.494V70.553H139.359V86.009h-8.43V48.9a8.83,8.83,0,0,1,8.877-8.877Zm-.448,22.1h29.061V48.9a.4.4,0,0,0-.448-.448H139.806a.4.4,0,0,0-.448.448Z" transform="translate(-25.152 -40.025)" fill="#808184"/>
      <path id="Path_2366" data-name="Path 2366" d="M165.25,40.025h45.984v8.43H192.521V86.009h-8.494V48.455H165.25Z" transform="translate(45.01 -40.025)" fill="#808184"/>
      <path id="Path_2367" data-name="Path 2367" d="M220.113,77.132V40.025h8.494V77.132a8.887,8.887,0,0,1-8.877,8.877H191.5a8.83,8.83,0,0,1-8.877-8.877V40.025h8.43V77.132a.4.4,0,0,0,.447.448h28.23Q220.113,77.579,220.113,77.132Z" transform="translate(80.525 -40.025)" fill="#808184"/>
      <path id="Path_2368" data-name="Path 2368" d="M252.044,85.384h-8.171V58.752L229.5,84.044a3.56,3.56,0,0,1-1.483,1.464,4.34,4.34,0,0,1-2.043.5,4.11,4.11,0,0,1-1.982-.5,3.591,3.591,0,0,1-1.449-1.464L208.1,58.752V85.384H200V44.125a4.068,4.068,0,0,1,2.993-3.961,4.342,4.342,0,0,1,1.309-.11,4.455,4.455,0,0,1,1.263.283,3.806,3.806,0,0,1,1.108.655,3.86,3.86,0,0,1,.843,1.014L225.973,74.1l18.461-32.09a3.95,3.95,0,0,1,1.982-1.683,4.23,4.23,0,0,1,2.636-.158,4.069,4.069,0,0,1,2.149,1.467,3.962,3.962,0,0,1,.843,2.493Z" transform="translate(116.041 -40.024)" fill="#808184"/>
      <path id="Path_2369" data-name="Path 2369" d="M192.992,81.913a4,4,0,0,1-.329,1.623,4.18,4.18,0,0,1-.874,1.294,3.949,3.949,0,0,1-1.294.855,4.054,4.054,0,0,1-1.589.314,4.393,4.393,0,0,1-1.513-.28,3.534,3.534,0,0,1-1.355-.907L156.412,53.878v31.5H148.3V44.115a3.871,3.871,0,0,1,.7-2.259,4.33,4.33,0,0,1,1.793-1.513,4.1,4.1,0,0,1,2.368-.234,3.858,3.858,0,0,1,2.091,1.139l29.624,30.906v-31.5h8.11Z" transform="translate(10.363 -40.014)" fill="#808184"/>
    </g>
    <g id="Group_789" data-name="Group 789" transform="translate(95.528 115.374)">
      <path id="Path_2370" data-name="Path 2370" d="M209.744,232.1l-35.362-46.946c-2.843.2-5.894.609-8.941.609H139.628v20.12h-44.1V64.843H165.44c16.664,0,31.3,5.081,43.083,16.865A59.261,59.261,0,0,1,226.408,124.8,58.238,58.238,0,0,1,212.794,163L244.9,205.681Zm-44.3-90.437A16.782,16.782,0,0,0,182.1,124.8,16.609,16.609,0,0,0,165.44,108.13H139.628v33.533Z" transform="translate(-95.528 -64.639)" fill="#2e368c"/>
      <path id="Path_2371" data-name="Path 2371" d="M268.588,64.91v85.761c0,16.664-5.891,31.3-17.681,42.879a58.926,58.926,0,0,1-43.086,17.885c-16.664,0-30.887-6.1-42.879-17.885-11.787-11.58-17.681-26.214-17.681-42.879V64.91h43.9v85.761a16.767,16.767,0,0,0,33.533,0V64.91Z" transform="translate(10.229 -64.502)" fill="#2e368c"/>
      <path id="Path_2372" data-name="Path 2372" d="M301.362,185.494c-14.022,13.818-30.483,20.525-49.792,20.525H193.853V64.776H251.57c19.31,0,35.77,6.907,49.792,20.729,13.821,13.818,20.729,30.486,20.729,49.792C322.091,154.8,315.183,171.472,301.362,185.494ZM278.4,135.7a26.777,26.777,0,0,0-7.519-18.7c-4.676-5.489-11.383-8.332-19.31-8.332H237.551v53.653h4.472c10.159.2,20.117.4,28.449-7.927A25.406,25.406,0,0,0,278.4,135.7Z" transform="translate(105.477 -64.776)" fill="#2e368c"/>
      <path id="Path_2373" data-name="Path 2373" d="M349.087,185.494c-14.019,13.818-30.479,20.525-49.789,20.525H241.581V64.776H299.3c19.31,0,35.77,6.907,49.789,20.729,13.821,13.818,20.732,30.486,20.732,49.792C369.819,154.8,362.908,171.472,349.087,185.494ZM326.124,135.7a26.774,26.774,0,0,0-7.516-18.7c-4.679-5.489-11.386-8.332-19.31-8.332H285.276v53.653h4.472c10.162.2,20.12.4,28.452-7.927A25.4,25.4,0,0,0,326.124,135.7Z" transform="translate(203.047 -64.776)" fill="#2e368c"/>
      <path id="Path_2374" data-name="Path 2374" d="M332,103.457v13.209h56.907v35.362H332V166.05h58.125v39.832H288.107V64.843H389.926v38.614Z" transform="translate(298.159 -64.639)" fill="#2e368c"/>
      <path id="Path_2375" data-name="Path 2375" d="M442.17,232.1,406.81,185.153c-2.843.2-5.894.609-8.941.609H372.057v20.12h-44.1V64.843h69.912c16.661,0,31.3,5.081,43.083,16.865A59.26,59.26,0,0,1,458.837,124.8,58.224,58.224,0,0,1,445.22,163l32.111,42.681Zm-44.3-90.437A16.779,16.779,0,0,0,414.53,124.8a16.607,16.607,0,0,0-16.661-16.667H372.057v33.533Z" transform="translate(379.624 -64.639)" fill="#2e368c"/>
    </g>
    <g id="Group_790" data-name="Group 790" transform="translate(930.933 117.98)">
      <path id="Path_2376" data-name="Path 2376" d="M369.945,65.632H383.06v2.4h-5.337v10.71H375.3V68.037h-5.355Z" transform="translate(-369.945 -65.632)" fill="#2e368c"/>
      <path id="Path_2377" data-name="Path 2377" d="M389.744,78.569h-2.332v-7.6l-4.1,7.212a.988.988,0,0,1-.423.42,1.233,1.233,0,0,1-.581.14,1.161,1.161,0,0,1-.563-.14,1,1,0,0,1-.414-.42l-4.119-7.212v7.6H374.9V66.8a1.155,1.155,0,0,1,.852-1.129,1.19,1.19,0,0,1,.734.049,1.07,1.07,0,0,1,.317.186,1.12,1.12,0,0,1,.241.289l5.264,9.151,5.267-9.151a1.143,1.143,0,0,1,.563-.481,1.2,1.2,0,0,1,.752-.043,1.16,1.16,0,0,1,.615.417,1.144,1.144,0,0,1,.24.712Z" transform="translate(-359.816 -65.631)" fill="#2e368c"/>
    </g>
  </g>
</svg>
